<svg
  data-v-6cf21efb=""
  xmlns="http://www.w3.org/2000/svg"
  width="16.142"
  height="17.133"
  fill="#fff"
  viewBox="0 0 16.142 17.133"
  style="position: relative; top: 3px;"
>
  <path
    data-v-6cf21efb=""
    d="M7972.677,1601.853v-1.867h-1.527v-.831a4,4,0,0,1,4-4h8.148a4,4,0,0,1,4,4v.831h-1.528v1.867Zm2.47-4.811a2.09,2.09,0,0,0-2.113,2.113v1.032h12.373v-1.032a2.09,2.09,0,0,0-2.112-2.113Zm4.073-2.291a5.016,5.016,0,1,1,5.017-5.016A5.021,5.021,0,0,1,7979.22,1594.751Zm0-8.147a3.131,3.131,0,1,0,3.132,3.131A3.134,3.134,0,0,0,7979.22,1586.6Z"
    transform="translate(-7971.15 -1584.72)"
  ></path>
</svg>
